<svg width="26" height="29" viewBox="0 0 26 29" fill="none" xmlns="http://www.w3.org/2000/svg">
<g filter="url(#filter0_d_1_1059)">
<path d="M12.1033 3.81663C12.4701 3.07346 13.5299 3.07346 13.8967 3.81663L15.8576 7.78909C16.0031 8.08394 16.2843 8.2884 16.6096 8.33595L20.9962 8.97712C21.8161 9.09696 22.1429 10.1048 21.5493 10.683L18.3768 13.773C18.1409 14.0027 18.0333 14.3339 18.0889 14.6584L18.8374 19.0226C18.9775 19.8396 18.12 20.4626 17.3864 20.0767L13.4655 18.0148C13.1741 17.8615 12.8259 17.8615 12.5345 18.0148L8.61363 20.0767C7.88 20.4626 7.02245 19.8396 7.16257 19.0226L7.91109 14.6584C7.96675 14.3339 7.85908 14.0027 7.62321 13.773L4.45068 10.683C3.85708 10.1048 4.18387 9.09696 5.00378 8.97712L9.39037 8.33595C9.71572 8.2884 9.99691 8.08394 10.1424 7.78909L12.1033 3.81663Z" fill="#FF3700"/>
</g>
<defs>
<filter id="filter0_d_1_1059" x="-3" y="0" width="32" height="32" filterUnits="userSpaceOnUse" color-interpolation-filters="sRGB">
<feFlood flood-opacity="0" result="BackgroundImageFix"/>
<feColorMatrix in="SourceAlpha" type="matrix" values="0 0 0 0 0 0 0 0 0 0 0 0 0 0 0 0 0 0 127 0" result="hardAlpha"/>
<feOffset dy="4"/>
<feGaussianBlur stdDeviation="2"/>
<feComposite in2="hardAlpha" operator="out"/>
<feColorMatrix type="matrix" values="0 0 0 0 0 0 0 0 0 0 0 0 0 0 0 0 0 0 0.25 0"/>
<feBlend mode="normal" in2="BackgroundImageFix" result="effect1_dropShadow_1_1059"/>
<feBlend mode="normal" in="SourceGraphic" in2="effect1_dropShadow_1_1059" result="shape"/>
</filter>
</defs>
</svg>
